# xmcd
#
# Track frame offsets:
#	150
#	77565
#	167046
#	188475
#	225278
#	274633
#	321036
#
# Disc length: 4546 seconds
#
# Revision: 1
# Processed by: cddbd v1.5.2PL0 Copyright (c) Steve Scherf et al.
# Submitted via: audiograbber 1.83.01
#
DISCID=4611c007
DTITLE=Grateful Dead - 78-04-14 Cassell Coliseum, Virginia Polytechnic, Blacksb
DTITLE=urg VA
DYEAR=1900
DGENRE=
TTITLE0=Dancing In The Streets
TTITLE1=Drums
TTITLE2=Drums > Space
TTITLE3=The Other One
TTITLE4=Black Peter
TTITLE5=Sugar Magnolia
TTITLE6=Johnny B Goode
EXTD=
EXTT0=
EXTT1=
EXTT2=
EXTT3=
EXTT4=
EXTT5=
EXTT6=
PLAYORDER=
